<svg width="40" height="40" viewBox="0 0 40 40" fill="none" xmlns="http://www.w3.org/2000/svg">
<path d="M7.14681 26.436V18.4556H5.61884C5.2116 18.4556 4.86046 18.6114 4.56609 18.9229C4.27171 19.2344 4.12519 19.606 4.12519 20.037V26.436C4.12519 27.4901 4.62285 28.0175 5.61884 28.0175C6.63727 28.0175 7.14681 27.4901 7.14681 26.436ZM10.1691 26.436C10.1691 27.9455 9.69321 29.1441 8.74276 30.0306C7.90518 30.8219 6.87554 31.2173 5.65316 31.2173C4.40768 31.2173 3.36681 30.8219 2.52923 30.0306C1.57813 29.1441 1.10291 27.9455 1.10291 26.436V20.037C1.10291 18.647 1.58935 17.4847 2.56289 16.5501C3.44602 15.6874 4.46444 15.2558 5.61884 15.2558H7.14681V8.85742H10.1691V26.436Z" fill="#FEFEFE"/>
<path d="M25.8588 31.3118H22.8365V26.5306C22.8365 26.0514 22.6834 25.6679 22.3778 25.3801C22.0722 25.093 21.7046 24.9491 21.2749 24.9491C20.3013 24.9491 19.8142 25.4765 19.8142 26.5306V31.3118H16.7926V26.5306C16.7926 25.2369 17.1774 24.1703 17.947 23.3314C17.1774 22.5644 16.7926 21.4978 16.7926 20.1322V15.351H19.8142V20.1586C19.8142 21.2193 20.3125 21.7493 21.3085 21.7493C22.327 21.7493 22.8365 21.2193 22.8365 20.1586V15.351H25.8588V20.1322C25.8588 21.282 25.4733 22.3486 24.7037 23.3314C25.4733 24.2898 25.8588 25.3564 25.8588 26.5306V31.3118Z" fill="#FEFEFE"/>
<path d="M32.2784 22.1971V18.0956L35.634 16.0449L38.989 18.0956V22.1971L35.634 24.2478L32.2784 22.1971Z" fill="#99CC00"/>
<path d="M28.1818 15.07V10.9686L31.5374 8.91785L34.8923 10.9686V15.07L31.5374 17.1207L28.1818 15.07Z" fill="#99CC00"/>
<path d="M28.1818 29.1935V25.0921L31.5374 23.0414L34.8923 25.0921V29.1935L31.5374 31.2442L28.1818 29.1935Z" fill="#99CC00"/>
<path d="M11.2946 17.2747H15.8884V16.0536H12.81L15.4026 12.6142C15.5709 12.3924 15.6943 12.1581 15.7729 11.9099C15.8507 11.6618 15.8897 11.3971 15.8884 11.1159C15.8745 10.4216 15.6508 9.8447 15.2171 9.38598C14.7835 8.92726 14.2225 8.68965 13.5354 8.67249C12.9123 8.68767 12.3889 8.9233 11.9651 9.37872C11.5407 9.83414 11.3177 10.4169 11.2946 11.1278H12.4476C12.4826 10.7404 12.608 10.4394 12.8245 10.2229C13.0403 10.0064 13.3076 9.89684 13.6258 9.89354C13.9743 9.90608 14.2456 10.0328 14.4396 10.2737C14.6337 10.5146 14.7327 10.7912 14.7353 11.104C14.7386 11.2281 14.7208 11.3595 14.6818 11.4981C14.6429 11.636 14.5624 11.7885 14.4409 11.9548L11.2946 16.1256V17.2747Z" fill="#99CC00"/>
</svg>
