<?xml version="1.0" encoding="UTF-8" standalone="no"?>
<!DOCTYPE svg PUBLIC "-//W3C//DTD SVG 1.1//EN" "http://www.w3.org/Graphics/SVG/1.1/DTD/svg11.dtd">
<svg width="100%" height="100%" viewBox="0 0 88 73" version="1.1" xmlns="http://www.w3.org/2000/svg" xmlns:xlink="http://www.w3.org/1999/xlink" xml:space="preserve" style="fill-rule:evenodd;clip-rule:evenodd;stroke-linejoin:round;stroke-miterlimit:1.41421;"><g><path d="M31.763,0.139c-1.886,-0.185 -3.786,-0.185 -5.671,0l-0.852,4.478c-1.805,0.274 -3.574,0.748 -5.274,1.413l-2.977,-3.452c-1.726,0.782 -3.371,1.732 -4.911,2.836l1.501,4.304c-1.427,1.139 -2.722,2.434 -3.861,3.861l-4.304,-1.501c-1.104,1.54 -2.054,3.185 -2.836,4.911l3.452,2.977c-0.665,1.7 -1.139,3.469 -1.413,5.274l-4.478,0.852c-0.185,1.885 -0.185,3.785 0,5.671l4.478,0.852c0.274,1.805 0.748,3.574 1.413,5.274l-3.452,2.977c0.782,1.726 1.732,3.37 2.836,4.911l4.304,-1.501c1.139,1.426 2.434,2.721 3.861,3.861l-1.501,4.304c1.54,1.103 3.185,2.053 4.911,2.835l2.977,-3.452c1.7,0.665 3.469,1.139 5.274,1.413l0.852,4.478c1.885,0.186 3.785,0.186 5.671,0l0.852,-4.478c1.805,-0.274 3.574,-0.748 5.274,-1.413l2.977,3.452c1.726,-0.782 3.37,-1.732 4.911,-2.835l-1.501,-4.304c1.426,-1.14 2.721,-2.435 3.861,-3.861l4.304,1.501c1.103,-1.541 2.053,-3.185 2.835,-4.911l-3.452,-2.977c0.665,-1.7 1.139,-3.469 1.413,-5.274l4.478,-0.852c0.186,-1.886 0.186,-3.786 0,-5.671l-4.478,-0.852c-0.274,-1.805 -0.748,-3.574 -1.413,-5.274l3.452,-2.977c-0.782,-1.726 -1.732,-3.371 -2.835,-4.911l-4.304,1.501c-1.14,-1.427 -2.435,-2.722 -3.861,-3.861l1.501,-4.304c-1.541,-1.104 -3.185,-2.054 -4.911,-2.836l-2.977,3.452c-1.7,-0.665 -3.469,-1.139 -5.274,-1.413l-0.852,-4.478Zm-2.836,23.003c3.193,0 5.786,2.592 5.786,5.785c0,3.193 -2.593,5.786 -5.786,5.786c-3.193,0 -5.785,-2.593 -5.785,-5.786c0,-3.193 2.592,-5.785 5.785,-5.785Z" style="fill:#fff;"/><path d="M71.343,35.04c-1.449,-0.171 -2.914,-0.171 -4.363,0l-0.653,2.913c-1.384,0.252 -2.727,0.689 -3.995,1.298l-2.24,-1.973c-1.274,0.713 -2.459,1.574 -3.531,2.565l1.184,2.74c-0.971,1.018 -1.801,2.161 -2.469,3.399l-2.972,-0.279c-0.611,1.325 -1.064,2.718 -1.348,4.15l2.568,1.521c-0.187,1.394 -0.187,2.806 0,4.2l-2.568,1.521c0.284,1.432 0.737,2.825 1.348,4.15l2.972,-0.279c0.668,1.238 1.498,2.381 2.469,3.399l-1.184,2.74c1.072,0.991 2.257,1.851 3.531,2.565l2.24,-1.973c1.268,0.609 2.611,1.046 3.995,1.298l0.653,2.913c1.449,0.171 2.914,0.171 4.363,0l0.653,-2.913c1.384,-0.252 2.728,-0.689 3.995,-1.298l2.241,1.973c1.273,-0.714 2.458,-1.574 3.53,-2.565l-1.184,-2.74c0.971,-1.018 1.801,-2.161 2.469,-3.399l2.972,0.279c0.611,-1.325 1.064,-2.718 1.348,-4.15l-2.568,-1.521c0.187,-1.394 0.187,-2.806 0,-4.2l2.568,-1.521c-0.284,-1.432 -0.737,-2.825 -1.348,-4.15l-2.972,0.279c-0.668,-1.238 -1.498,-2.381 -2.469,-3.399l1.184,-2.74c-1.072,-0.991 -2.257,-1.852 -3.53,-2.565l-2.241,1.973c-1.267,-0.609 -2.611,-1.046 -3.995,-1.298l-0.653,-2.913Zm-2.181,14.721c2.049,0 3.712,1.664 3.712,3.713c0,2.049 -1.663,3.712 -3.712,3.712c-2.049,0 -3.713,-1.663 -3.713,-3.712c0,-2.049 1.664,-3.713 3.713,-3.713Z" style="fill:#fff;"/></g></svg>