<?xml version="1.0" encoding="UTF-8" standalone="no"?>
<!DOCTYPE svg PUBLIC "-//W3C//DTD SVG 1.1//EN" "http://www.w3.org/Graphics/SVG/1.1/DTD/svg11.dtd">
<svg width="100%" height="100%" viewBox="0 0 100 100" version="1.1" xmlns="http://www.w3.org/2000/svg" xmlns:xlink="http://www.w3.org/1999/xlink" xml:space="preserve" style="fill-rule:evenodd;clip-rule:evenodd;stroke-linejoin:round;stroke-miterlimit:1.41421;">
    <g transform="matrix(1,0,0,1,-463.675,-976.93)">
        <g transform="matrix(1,0,0,1,90.0411,-32.4791)">
            <circle cx="423.134" cy="1058.91" r="49.5" style="fill:white;"/>
        </g>
        <g transform="matrix(1,0,0,1,5.20307,10.4061)">
            <path d="M532.844,984.161L539.475,982.722L546.168,988.439L552.077,999.752C552.439,1010.83 541.684,1024.32 538.399,1021.26C536.369,1019.37 538.756,1007.23 537.337,1007.89L535.061,1005.95L536.289,995.226L532.79,999.752L533.301,1003.42L530.627,1006.85L528.281,1002.99L524.773,1002.92L523.851,997.487L527.615,991.819L532.844,984.161Z"/>
        </g>
        <g transform="matrix(1,0,0,1,5.20307,5.84777)">
            <path d="M519.547,1004.31L515.476,1006.28L517.005,1010.8L513.175,1020.58L519.083,1019.16L522.782,1019.16L523.241,1016.19L519.076,1008.36L519.547,1004.31Z"/>
        </g>
        <path d="M548.663,1021.28L537.92,1022.3L535.964,1019.32L533.727,1019.32L532.71,1023.73L523.298,1029.59L525.197,1032.14L524.655,1035.15L520.013,1035.21L518.378,1040L523.298,1044.74L527.771,1040L531.822,1037.72L534.134,1038.06L535.219,1040L538.397,1042.54L538.397,1037.9L542.388,1042.79L535.543,1046.94L525.987,1047.43L516.108,1045.97L511.019,1055.5L513.175,1064.79L523.298,1071.63L535.251,1067.52L544.391,1061.4L551.597,1052.57L557.289,1041.29L559.472,1026.43L557.289,1010.16L552.33,1005.63L548.663,1021.28Z"/>
        <path d="M511.019,990.721L508.775,1005.63C503.172,1009.72 512.348,1007.37 498.308,1005.63L490.241,993.128L485.597,997.321L492.834,1006.59L484.98,1007.95L485.598,1012.62L490.236,1016.36L492.378,1009.68L495.619,1010.16L502.463,1015.61L491.952,1026.43L489.263,1029.59L490.974,1032.11L488.285,1034.23L486.574,1029.59L479.778,1032.11L478.263,1036.43L478.927,1044L485.568,1048.85L491.8,1046.13L502.219,1054.03L498.225,1062.11L496.401,1069.88L485.285,1063.57L479.729,1057.34L485.07,1050.36L476.98,1045.89L473.724,1042.1L471.301,1035.75L467.667,1025.15L470.218,1010.16L476.797,998.055L482.663,990.477L489.752,985.344L498.499,981.369L506.374,979.657L513.175,983.144"/>
        <g transform="matrix(1,0,0,1,0,3.74168)">
            <path d="M518.378,1012.62L515.959,1012.62L514.59,1014.55L515.396,1018.53L518.378,1018.29L518.378,1012.62Z"/>
        </g>
    </g>
</svg>