<?xml version="1.0" encoding="UTF-8" standalone="no"?>
<!DOCTYPE svg PUBLIC "-//W3C//DTD SVG 1.1//EN" "http://www.w3.org/Graphics/SVG/1.1/DTD/svg11.dtd">
<svg width="100%" height="100%" viewBox="0 0 106 58" version="1.1" xmlns="http://www.w3.org/2000/svg" xmlns:xlink="http://www.w3.org/1999/xlink" xml:space="preserve" style="fill-rule:evenodd;clip-rule:evenodd;stroke-linejoin:round;stroke-miterlimit:1.41421;"><g><path d="M39.667,0.536c1.752,0.311 4.687,8.197 8.49,8.218c3.069,0.017 8.603,-0.396 11.699,-0.507c3.743,-0.134 5.319,-7.735 7.216,-7.968c7.101,-0.872 13.641,0.579 13.641,0.579c0,0 11.304,8.803 19.754,20.692c8.451,11.89 5.92,39.518 -14.243,35.997c-1.827,-0.319 -3.489,-0.736 -5.002,-1.231c-15.178,-4.962 -15.261,-17.734 -15.261,-17.734l-26.902,0c0,0 -0.1,15.444 -20.263,18.965c-20.163,3.521 -22.694,-24.107 -14.244,-35.997c8.451,-11.889 19.754,-20.692 19.754,-20.692c0,0 7.633,-1.693 15.361,-0.322Z" style="fill:#fff;"/><circle cx="22.693" cy="25.971" r="8.516"/><circle cx="70.734" cy="23.476" r="3.065"/><circle cx="47.773" cy="22.228" r="1.817"/><circle cx="57.238" cy="22.228" r="1.817"/><circle cx="79.164" cy="29.036" r="3.065"/><circle cx="81.465" cy="18.485" r="3.065"/><circle cx="89.896" cy="24.046" r="3.065"/></g></svg>